<?xml version="1.0" encoding="UTF-8"?><svg xmlns="http://www.w3.org/2000/svg" xmlns:xlink="http://www.w3.org/1999/xlink" viewBox="0 0 292 36.72"><defs><style>.e{clip-path:url(#d);}.f{fill:none;}</style><clipPath id="d"><rect width="292" height="36.72" style="fill:none;"/></clipPath></defs><g id="a"/><g id="b"><g id="c"><g style="clip-path:url(#d);"><path d="M257.95,3.42c-1.67,0-3.34,0-5,0-21.43-1.19-42.91-.37-64.36-1.11-12.04-.37-24.09-.65-36.13-.14-4.78,.2-9.56,.14-14.34,.07-3.32-.05-6.64-.09-9.95-.04-3.8,0-7.59,.05-11.39,.11-4.37,.07-8.75,.13-13.12,.11-4.48,.14-8.96,.08-13.43,.02-3.83-.05-7.66-.1-11.49-.02-11.21,.27-22.43,.96-33.63,.04-7.23-.42-14.47,.22-21.71,.47-.01-.39-.03-.77-.04-1.15,1.07-.1,2.14-.18,3.21-.22,9.44-.64,18.86-.29,28.3,.14,7.11-.23,14.21-.48,21.33-.62,5.79-.04,11.59-.03,17.39-.02,10.65,0,21.3,.02,31.95-.23,6.04-.12,12.07,.03,18.11,.27,4.82-.04,9.65-.39,14.47-.5,13.37-.35,26.73,.42,40.1,.74,26.48-.1,52.94,.87,79.41,.92,.55-.03,1.18-.14,1.44,.44-.12,.34-.48,.55-.84,.55-5.76,.15-11.53,.17-17.29,.17-1,0-1.99,0-2.99,0Z"/><path d="M17.73,35.72C8.71,35.3,.25,27.13,.81,17.91c.03-.16-.21-.36-.06-.52,.17-.16,.46-.06,.5,.17,.38,2.3,.82,4.62,1.84,6.73,1.69,4.3,5.35,7.69,9.52,9.54,3.73,1.35,7.75,.98,11.63,1.42-2.07,.4-4.34,.76-6.5,.48Z"/><path d="M.95,19.12c-.06-.13-.04-.29-.05-.39C.39,12.82,3.6,6.29,8.98,3.58c2.51-1.29,5.35-1.59,8.13-1.54,2.01-.12,4.03-.43,6.05-.15,.96,.05,1.96,.13,2.79,.5-1.07,.32-2.15,.69-3.28,.55-1.88-.34-3.7,.04-5.58,.07-2.52-.1-5.15,.31-7.43,1.38C4.15,6.87,1.82,13.13,1.31,18.77c.19,.22-.18,.68-.36,.36Z"/><path d="M289.25,18.83c.01-.26,.49-.26,.5,0-.01,.26-.49,.26-.5,0Z"/><path d="M289.51,19.57c-.12,0-.24-.11-.21-.24-.4-2.69-1.29-5.36-2.58-7.77-1.9-3.32-4.69-6.46-8.19-8.07-.52-.11-1.01-.31-1.39-.69,.23-.17,.55-.3,.85-.34,1.58-.04,2.76,1.34,4,2.15,1.6,1.36,3.33,2.55,4.61,4.24,2.15,3.01,4.09,6.76,3.21,10.53,0,.15-.17,.22-.3,.2Z"/><path d="M289.03,14.67c-.02-.32,.39-.34,.4-.02,.02,.32-.39,.34-.4,.02Z"/><path d="M274.91,36.13c-.34-.08-.76-.18-1.04-.32,.66-.37,1.3-.8,2.02-1.04,2-.45,3.92-1.05,5.58-2.27,2.99-2.75,5.63-6.04,6.94-9.9,.94-2.9,.47-5.9-.3-8.75-.45-.83,.3-.91,.43-.07h0c3.21,5.03,1.27,11.66-2.51,15.82-2.73,3.22-6.59,6.89-11.12,6.55Z"/><path d="M183.54,36.38c-1.96-.06-3.93-.09-5.89-.23-.32,0-.65-.1-.83-.38-.04-.06-.15-.17-.06-.25,.23-.36,.67-.44,1.07-.38,12.43,.34,24.89-.67,37.32-.19,15.2-.01,30.37-.01,45.56-.09,6.13-.69,12.61,1.36,18.48-.83,.16-.46,.73,.07,.31,.35-3.31,1.92-7.09,1.83-10.8,1.86-7.22-.17-14.5-.06-21.71-.1-9.64-.12-19.23-.01-28.87,.1-11.56-.39-23.04-.03-34.59,.14Z"/><path d="M176.71,35.69c-.02-.31,.39-.37,.4-.03,.02,.31-.39,.37-.4,.03Z"/><path d="M177.33,35.78c-.02-.31,.39-.37,.4-.03,.02,.31-.39,.37-.4,.03Z"/><path d="M178.99,35.6c-.02-.31,.39-.37,.4-.03,.02,.31-.39,.37-.4,.03Z"/><path d="M180.28,35.73c-.02-.31,.39-.37,.4-.03,.02,.31-.39,.37-.4,.03Z"/><path d="M183.47,35.35c-.02-.31,.39-.37,.4-.03,.02,.31-.39,.37-.4,.03Z"/><path d="M183.21,35.68c-.02-.31,.39-.37,.4-.03,.02,.31-.39,.37-.4,.03Z"/><path d="M171.42,36.33c-6.86-.16-13.71-.89-20.57-.84-14.4,.03-28.79,.38-43.18,.74-12.3-.05-24.63-.88-36.93-.89-12.58,.52-25.15,.26-37.73,.7-2.57,.27-5.15,.05-7.72,.08-.73,.15-1.49,.05-2.14-.34,1.09-.83,2.59-.85,3.92-.82,7.21,0,14.41-.41,21.63-.29,7.73,.22,15.38-.18,23.1-.32,12.78-.16,25.59,.81,38.36,.6,4.25-.28,8.51-.06,12.77-.18,4.12-.32,8.24-.47,12.38-.35,9.45-.44,18.89-.21,28.31,.31,3.08,.09,6.2,.37,9.27,.36,3.69-.19,7.63-.72,11.21,.28,.21,.14,.02,.6-.22,.43-.03-.02-.06-.04-.09-.06-4.11-.99-8.26,.55-12.38,.58Z"/><path d="M24.84,35.95c-2.27-.11-4.51-.6-6.78-.7,.29,.32-.18,.61-.39,.29-.04-.17-.21-.25-.25-.42-.29-.06-.2-.43,.08-.39,1.18,.12,2.34,.16,3.52,.18,.33,.07,3.02-.21,2.15,.44,.57,.01,3.92,.41,1.66,.59Z"/><path d="M23.04,36.12c-2.36-.04-4.68-.48-7.03-.61-.16-.02-.31-.17-.21-.33,.13-.17,.37-.1,.55-.1,.49-.22,1.13,0,1.67-.04,.01-.09,.12-.15,.2-.16,1.75,.09,3.48,.2,5.23,.22,.6,.2,5.71-.39,4.64,.7,.19,.04,.49,0,.62,.07-1.9,.04-3.77,.27-5.67,.25Z"/></g></g></g></svg>