<?xml version="1.0" encoding="UTF-8"?><svg xmlns="http://www.w3.org/2000/svg" xmlns:xlink="http://www.w3.org/1999/xlink" viewBox="0 0 22 22.35"><defs><style>.e{clip-path:url(#d);}.f{fill:none;}</style><clipPath id="d"><rect width="22" height="22.35" style="fill:none;"/></clipPath></defs><g id="a"/><g id="b"><g id="c"><g style="clip-path:url(#d);"><path d="M10.44,16.44c5.75-.52,8.26-6.13,5.31-10.95-1.4-1.59-3.53-2.11-5.35-3.04C6.19,3.18,2.59,7.8,3.87,12.03c1.2,2.42,3.72,4.69,6.58,4.41Zm-2.54,2.43C3.69,17.4,.25,12.67,1.82,8.16,3.35,2.88,7.56,.25,12.94,1.34c4.9,1.08,6.95,6.84,5.89,11.33-1.36,4.41-6.44,7.46-10.93,6.21Z"/><path d="M20.4,22.1c-1.19-.25-1.85-1.62-2.72-2.4-.46-.71-3.07-2.94-1.86-3.59,1.98,.42,3.44,2.24,5.04,3.41,.9,.62,.79,2.51-.45,2.57Z"/><path d="M16.15,4.65c-2.28-1.11-4.75-2.06-7.33-1.64-1.01,.09-1.92,.42-2.85,.78-.21,.08-.38-.15-.24-.33,.31-.38,.89-.38,1.33-.55-.13-.59,.81-.42,1.17-.58,.6-.54,1.78-.29,2.56-.31,.41-.12,.83-.01,1.22,.11,.14,.03,.3,.12,.26,.28h0c.1,.02,.19,.05,.29,.07,.03,.01,.06,.04,.08,.07,.36,.16,3.67,1.06,2.83,1.56,.2,.17,.56,.34,.67,.53Z"/><path d="M17.89,19.72c-.98-.98-2.26-1.89-2.88-3.13-.14-.14-.17-.53,.11-.49,.3,.12,.55,.37,.8,.57-.58-.74-.59-1.66,.33-.56-.12-.22-.58-.64-.19-.8,.07-.15,.26-.12,.34,0,1.21,1.45,2.66,2.74,3.85,4.22-.2-.06-.46-.33-.67-.47-.24,.16-.43-.22-.61-.34-.02,.03-.05,.06-.09,.07,0,.93-1.78-1.33-2.11-1.52,.11,.27,.42,.42,.46,.7,.13,.32,1.56,1.91,.66,1.75Z"/></g></g></g></svg>