<?xml version="1.0" encoding="UTF-8"?><svg xmlns="http://www.w3.org/2000/svg" xmlns:xlink="http://www.w3.org/1999/xlink" viewBox="0 0 39 42.39"><defs><style>.e{clip-path:url(#d);}.f{fill:none;}</style><clipPath id="d"><rect width="39" height="42.39" style="fill:none;"/></clipPath></defs><g id="a"/><g id="b"><g id="c"><g style="clip-path:url(#d);"><path d="M37.86,1.68c.9,1.4-.76,8.17-1.24,8.87-.76,1.43-1.07,3.08-2,4.42-2.04,2.57-4.72,4.6-7.65,6.01-1.05,.45-2.32,.41-3.4,.7-1,.27-1.97,.48-2.97,.5,.03,.33-.05,.67-.03,1.01-.04,5.58,.44,11.14,.11,16.72,.55,.03,1.11,.06,1.66,.12,2.28,.04,4.57-.24,6.85-.03,.33-.03,.69-.06,1.01,.05,.59,.28,.6,1.27,.03,1.57-.97,.22-2.01,.09-3,.11-1.89-.08-3.6,.27-5.46,.1-3.17-.29-6.35-.14-9.53-.17-.91-.07-2.62,.49-2.59-.92,.02-.42,.29-.88,.76-.88,1.21,.02,2.42-.03,3.63-.04,1.72,.03,3.43,0,5.14,.04-.02-5.1,.15-10.22-.05-15.3-.01-.81,0-1.65,.07-2.47-2.89-.29-5.93-.47-8.57-1.72C5.9,17.87,1.94,13.6,1.02,8.22c.02-.76-.77-4.98-.34-6.29-.06-.12-.08-.26-.08-.4-.02-1.29,2.76-.64,3.63-.71,6.22,.32,12.44,.46,18.67,.19,4.08-.01,8.17,.1,12.25,.16,.85,.03,2.45-.53,2.71,.51Zm-1.22,1.19c-.42,.02-.87-.02-1.2,.05-7.57-.14-15.12,0-22.69,.06-3.76-.17-7.52-.24-11.26-.62,.77,2.66,.66,5.6,1.77,8.17,.29-.15,.67-.18,1.03-.11,3.62,.24,7.24-.21,10.86-.13,6.13,.4,12.25-.01,18.38-.12,.45,.02,1.1-.08,1.61,.02,.56-1.4,1.03-2.82,1.19-4.34,.22-.98,.25-1.98,.3-2.99Z"/></g></g></g></svg>